<svg width="190" height="150" viewBox="0 0 190 150" fill="none" xmlns="http://www.w3.org/2000/svg">
<path d="M157.498 99.0449C157.835 101.119 161.892 107.877 163.388 111.679C163.042 111.183 162.64 110.599 162.242 110.06C161.93 109.431 161.653 108.728 161.34 108.188C160.857 107.352 160.349 106.535 159.797 105.758C158.952 104.524 157.985 103.409 156.916 102.436C155.681 101.268 154.177 100.543 152.591 100.352C152.163 100.317 149.723 100.104 150.291 101.243C150.396 101.417 150.535 101.56 150.697 101.659C152.198 102.723 153.856 103.292 155.438 104.134C157.806 105.416 160.934 108.832 162.238 110.317L162.901 111.332C160.571 108.817 156.767 107.372 155.463 108.08C153.852 108.931 157.318 109.802 160.259 110.683C161.575 111.03 162.798 111.742 163.824 112.758C164.388 113.639 165.025 114.629 165.662 115.644C165.739 115.802 165.816 115.951 165.893 116.099C165.441 115.492 164.931 114.947 164.371 114.476C162.866 113.282 158.725 112.56 158.289 114.174C157.853 115.787 160.789 115.05 163.315 115.515C164.682 115.808 165.939 116.58 166.914 117.728L167.081 117.936C167.367 118.431 167.641 118.862 167.897 119.297C168.5 120.317 169.073 121.277 169.607 122.203C168.757 120.913 167.749 119.774 166.615 118.822C164.409 117.07 161.464 116.698 160.392 117.639C159.319 118.579 164.268 119.431 166.701 120.421C168.102 121.039 169.344 122.061 170.308 123.391C171.107 124.703 171.898 125.98 172.749 127.317C171.393 125.927 169.942 124.667 168.41 123.55C165.918 121.659 163.337 121.916 162.648 123.055C161.96 124.193 164.068 124.268 167.987 125.243C170.054 125.751 171.97 126.877 173.544 128.51L174.668 130.243C175.095 130.921 175.63 131.614 176.173 132.297C175.51 131.951 174.531 131.456 173.446 130.916C172.232 130.339 171.059 129.654 169.936 128.867C168.654 127.936 166.91 126.951 165.375 127.743C165.259 127.787 165.152 127.859 165.062 127.954C164.972 128.05 164.9 128.167 164.852 128.298C164.805 128.428 164.781 128.569 164.785 128.711C164.788 128.852 164.817 128.992 164.871 129.119C165.041 129.477 165.306 129.762 165.628 129.931C167.337 131.015 169.445 131.302 171.313 131.782C173.027 132.227 174.765 132.539 176.515 132.718C177.023 133.337 177.553 133.946 178.079 134.52L177.292 134.688C176.365 134.891 171.843 133.441 169.599 133.119C167.355 132.797 165.538 134.505 167.974 135.495C170.411 136.485 176.476 135.07 176.476 135.07L178.229 134.688C180.31 136.961 182.238 138.698 182.238 138.698L183.05 138.065C183.05 138.065 181.37 137.53 178.549 134.441C178.483 133.83 178.474 133.212 178.523 132.599C178.703 129.134 181.169 125.223 179.276 121.872C178.818 121.06 177.831 120.614 177.284 121.505C176.891 122.149 176.912 123.233 177.036 123.98C177.463 126.431 178.126 128.604 177.964 131.159C177.964 131.273 177.964 132.985 178.066 133.916C177.681 133.475 177.284 132.995 176.865 132.466C176.52 131.503 176.243 130.51 176.036 129.495C175.493 126.797 176.036 123.936 175.647 121.188C175.523 120.347 174.39 118.352 173.834 120.084C173.591 120.852 173.903 122.307 173.946 123.124C174.074 125.436 174.27 127.852 175.057 130.01L174.719 129.515C174.043 127.361 173.517 125.148 173.146 122.896C172.544 119.178 172.646 116.015 171.612 115.025C170.577 114.035 170.633 118.174 171.612 122.525C172.061 124.508 172.79 126.392 173.77 128.099C172.668 126.466 171.569 124.787 170.522 123.149C169.55 121.364 168.943 119.346 168.748 117.248C168.564 113.946 168.393 111.248 167.077 109.609C165.76 107.971 165.7 109.198 166.739 112.926C167.453 115.48 168.308 118.916 169.304 121.228C168.487 119.946 167.722 118.728 167.034 117.624C166.577 116.48 165.465 113.525 165.119 110.971C164.692 107.723 164.144 106.02 163.409 106.881C162.901 107.485 163.837 111.426 165.2 114.634C164.623 113.688 164.191 112.961 163.918 112.53C163.804 112.332 163.676 112.124 163.533 111.906C162.87 109.285 162.064 106.715 161.118 104.213C159.464 99.8369 157.134 96.7825 157.498 99.0449Z" fill="#FC7F00"/>
<g opacity="0.6">
<path d="M157.499 99.0453C157.836 101.12 161.893 107.877 163.389 111.679C163.043 111.184 162.641 110.6 162.243 110.06C161.931 109.431 161.653 108.728 161.341 108.189C160.858 107.352 160.35 106.535 159.798 105.758C158.953 104.524 157.986 103.41 156.917 102.436C155.682 101.268 154.178 100.544 152.592 100.352C152.164 100.318 149.724 100.105 150.292 101.243C150.397 101.418 150.536 101.56 150.698 101.659C152.199 102.724 153.857 103.293 155.439 104.134C157.807 105.417 160.935 108.832 162.239 110.318L162.902 111.332C160.572 108.818 156.768 107.372 155.464 108.08C153.853 108.931 157.319 109.803 160.26 110.684C161.576 111.031 162.799 111.742 163.825 112.758C164.389 113.639 165.026 114.629 165.663 115.644C165.74 115.803 165.817 115.951 165.894 116.1C165.442 115.492 164.932 114.947 164.372 114.476C162.867 113.283 158.726 112.56 158.29 114.174C157.854 115.788 160.79 115.05 163.316 115.516C164.683 115.808 165.94 116.581 166.915 117.728L167.082 117.936C167.368 118.431 167.642 118.862 167.898 119.298C168.501 120.318 169.074 121.278 169.608 122.204C168.758 120.914 167.75 119.775 166.616 118.822C164.41 117.07 161.465 116.699 160.393 117.639C159.32 118.58 164.269 119.431 166.702 120.421C168.103 121.039 169.345 122.062 170.309 123.392C171.108 124.704 171.899 125.981 172.75 127.318C171.394 125.928 169.943 124.668 168.411 123.55C165.919 121.659 163.338 121.917 162.649 123.055C161.961 124.194 164.068 124.268 167.988 125.243C170.055 125.751 171.971 126.878 173.545 128.511L174.669 130.243C175.096 130.921 175.631 131.615 176.174 132.298C175.511 131.951 174.532 131.456 173.446 130.917C172.233 130.339 171.06 129.654 169.937 128.867C168.655 127.936 166.911 126.951 165.376 127.743C165.26 127.787 165.153 127.859 165.063 127.955C164.973 128.051 164.901 128.168 164.853 128.298C164.806 128.429 164.782 128.569 164.786 128.711C164.789 128.853 164.818 128.992 164.872 129.119C165.042 129.478 165.307 129.763 165.629 129.931C167.338 131.016 169.446 131.303 171.314 131.783C173.028 132.227 174.766 132.539 176.516 132.718C177.024 133.337 177.554 133.946 178.08 134.52L177.293 134.689C176.366 134.892 171.844 133.441 169.6 133.119C167.355 132.798 165.539 134.506 167.975 135.496C170.412 136.486 176.477 135.07 176.477 135.07L178.23 134.689C180.311 136.961 182.239 138.699 182.239 138.699L183.051 138.065C183.051 138.065 181.371 137.53 178.55 134.441C178.484 133.83 178.475 133.213 178.524 132.6C178.704 129.134 181.17 125.223 179.277 121.872C178.819 121.06 177.832 120.615 177.285 121.506C176.892 122.149 176.913 123.233 177.037 123.981C177.464 126.431 178.127 128.605 177.965 131.159C177.965 131.273 177.965 132.986 178.067 133.917C177.682 133.476 177.285 132.996 176.866 132.466C176.521 131.503 176.244 130.51 176.037 129.496C175.494 126.798 176.037 123.936 175.648 121.189C175.524 120.347 174.391 118.352 173.835 120.085C173.592 120.852 173.904 122.308 173.947 123.124C174.075 125.436 174.271 127.852 175.058 130.011L174.72 129.516C174.044 127.362 173.518 125.148 173.147 122.897C172.545 119.179 172.647 116.016 171.613 115.025C170.578 114.035 170.634 118.174 171.613 122.525C172.062 124.509 172.791 126.392 173.771 128.1C172.669 126.466 171.57 124.788 170.523 123.149C169.551 121.365 168.944 119.346 168.749 117.248C168.565 113.946 168.394 111.248 167.078 109.61C165.761 107.971 165.701 109.199 166.74 112.926C167.454 115.481 168.309 118.917 169.305 121.228C168.488 119.946 167.723 118.728 167.035 117.624C166.578 116.481 165.466 113.525 165.12 110.971C164.693 107.723 164.145 106.021 163.41 106.882C162.902 107.486 163.838 111.426 165.201 114.634C164.624 113.689 164.192 112.961 163.919 112.53C163.805 112.332 163.677 112.124 163.534 111.907C162.871 109.285 162.065 106.716 161.119 104.214C159.465 99.8374 157.135 96.7829 157.499 99.0453Z" fill="white"/>
</g>
<path d="M187.796 89.3964C186.804 91.1637 185.719 99.2974 184.539 103.258C184.599 102.604 184.642 101.882 184.671 101.174C184.821 100.471 185.039 99.7429 185.137 99.0944C185.283 98.1043 185.398 97.1142 185.466 96.1241C185.59 94.5552 185.553 92.9749 185.355 91.4162C185.152 89.5882 184.494 87.8682 183.462 86.4657C183.192 86.1142 181.534 83.9905 181.269 85.2726C181.24 85.4819 181.256 85.6962 181.316 85.8964C181.765 87.8766 182.628 89.6043 183.265 91.4904C184.214 94.3122 184.445 99.2825 184.505 101.391C184.471 101.733 184.428 102.164 184.381 102.654C184.193 98.9756 182.286 94.8964 180.931 94.3568C179.256 93.6934 181.248 97.0894 182.855 100.075C183.6 101.376 184.062 102.868 184.201 104.421C184.086 105.515 183.953 106.738 183.812 107.981C183.774 108.159 183.74 108.327 183.71 108.5C183.743 107.698 183.697 106.894 183.573 106.104C183.192 104.04 180.624 100.208 179.346 101.03C178.068 101.852 180.628 103.664 182.188 106.015C183.004 107.32 183.451 108.885 183.47 110.495C183.47 110.589 183.47 110.683 183.47 110.778C183.398 111.347 183.325 111.896 183.252 112.416C183.081 113.634 182.927 114.782 182.778 115.881C182.93 114.271 182.881 112.644 182.633 111.05C182.073 108.02 180.162 105.396 178.824 105.223C177.486 105.05 180.564 109.614 181.739 112.278C182.391 113.838 182.685 115.567 182.594 117.297C182.393 118.881 182.205 120.441 182.026 122.089C181.87 119.999 181.569 117.926 181.128 115.891C180.448 112.535 178.422 110.654 177.234 110.941C176.046 111.228 177.542 112.951 179.799 116.787C180.988 118.804 181.701 121.145 181.867 123.579C181.795 124.273 181.722 124.985 181.649 125.728C181.568 126.575 181.525 127.49 181.517 128.421C181.239 127.639 180.829 126.495 180.363 125.243C179.828 123.855 179.387 122.422 179.042 120.956C178.657 119.248 177.991 117.149 176.409 116.5C176.299 116.439 176.178 116.406 176.056 116.403C175.934 116.401 175.812 116.429 175.7 116.485C175.588 116.541 175.487 116.625 175.405 116.73C175.324 116.835 175.262 116.959 175.225 117.094C175.134 117.489 175.155 117.908 175.285 118.287C175.866 120.426 177.234 122.327 178.298 124.169C179.278 125.858 180.352 127.472 181.513 129C181.513 129.857 181.534 130.718 181.572 131.555L180.901 131.06C180.106 130.466 177.7 125.802 176.268 123.782C174.836 121.763 172.502 121.54 173.673 124.203C174.845 126.867 180.085 130.683 180.085 130.683L181.581 131.812C181.739 135.119 182.098 137.916 182.098 137.916L183.064 138.104C183.064 138.104 182.167 136.377 181.961 131.891C182.277 131.394 182.64 130.939 183.043 130.535C185.231 128.169 189.348 127.307 189.972 123.362C190.121 122.411 189.677 121.302 188.745 121.51C188.078 121.659 187.463 122.466 187.104 123.094C185.945 125.198 185.137 127.312 183.505 129.035C183.432 129.114 182.419 130.362 181.936 131.114C181.936 130.49 181.914 129.822 181.936 129.104C182.261 128.129 182.653 127.186 183.107 126.282C184.321 123.896 186.42 122.263 187.77 119.956C188.198 119.248 188.548 116.901 187.116 117.713C186.479 118.075 185.834 119.377 185.407 120C184.124 121.778 182.842 123.688 182.107 125.877C182.107 125.669 182.141 125.461 182.154 125.253C182.948 123.153 183.886 121.13 184.958 119.203C186.736 116.03 188.689 113.817 188.531 112.273C188.373 110.728 185.967 113.758 184.056 117.718C183.201 119.514 182.609 121.461 182.303 123.48C182.479 121.411 182.68 119.322 182.885 117.312C183.241 115.243 184.004 113.296 185.116 111.624C186.945 109.084 188.429 106.995 188.45 104.758C188.471 102.52 187.698 103.357 186.232 106.886C185.227 109.307 183.804 112.481 183.137 114.941C183.312 113.362 183.483 111.867 183.646 110.52C183.992 109.327 184.928 106.297 186.21 104.174C187.826 101.471 188.45 99.8023 187.403 99.8469C186.676 99.8766 184.992 103.461 184.086 106.886C184.231 105.743 184.351 104.872 184.428 104.357C184.462 104.126 184.492 103.873 184.518 103.599C185.592 101.156 186.531 98.6359 187.33 96.0548C188.749 91.535 188.873 87.4756 187.796 89.3964Z" fill="#FC7F00"/>
<g opacity="0.6">
<path d="M187.795 89.3955C186.803 91.1628 185.718 99.2964 184.538 103.257C184.598 102.603 184.641 101.881 184.67 101.173C184.82 100.47 185.038 99.742 185.136 99.0935C185.282 98.1034 185.397 97.1133 185.465 96.1232C185.589 94.5543 185.552 92.974 185.354 91.4153C185.151 89.5873 184.493 87.8673 183.461 86.4648C183.192 86.1133 181.533 83.9895 181.268 85.2717C181.239 85.4809 181.255 85.6953 181.315 85.8955C181.764 87.8757 182.627 89.6034 183.264 91.4895C184.213 94.3113 184.444 99.2816 184.504 101.391C184.47 101.732 184.427 102.163 184.38 102.653C184.192 98.9747 182.285 94.8955 180.93 94.3559C179.255 93.6925 181.247 97.0885 182.854 100.074C183.599 101.375 184.061 102.867 184.2 104.42C184.085 105.514 183.952 106.737 183.811 107.98C183.773 108.158 183.739 108.326 183.709 108.499C183.742 107.697 183.696 106.893 183.572 106.103C183.192 104.039 180.623 100.207 179.345 101.029C178.067 101.851 180.627 103.663 182.187 106.014C183.003 107.319 183.45 108.884 183.469 110.494C183.469 110.589 183.469 110.683 183.469 110.777C183.397 111.346 183.324 111.895 183.251 112.415C183.08 113.633 182.927 114.782 182.777 115.881C182.929 114.27 182.881 112.643 182.632 111.049C182.072 108.019 180.161 105.395 178.823 105.222C177.485 105.049 180.563 109.613 181.738 112.277C182.39 113.837 182.684 115.566 182.593 117.296C182.392 118.881 182.204 120.44 182.025 122.088C181.869 119.998 181.568 117.925 181.127 115.89C180.447 112.534 178.421 110.653 177.233 110.94C176.045 111.227 177.541 112.95 179.798 116.787C180.987 118.803 181.7 121.144 181.866 123.579C181.794 124.272 181.721 124.985 181.648 125.727C181.567 126.574 181.524 127.489 181.516 128.42C181.238 127.638 180.828 126.494 180.362 125.242C179.827 123.854 179.386 122.421 179.041 120.955C178.656 119.247 177.99 117.148 176.408 116.499C176.298 116.438 176.177 116.405 176.055 116.403C175.933 116.4 175.811 116.428 175.699 116.484C175.587 116.54 175.486 116.624 175.405 116.729C175.323 116.834 175.261 116.958 175.224 117.093C175.133 117.488 175.154 117.907 175.284 118.287C175.865 120.425 177.233 122.326 178.297 124.168C179.277 125.857 180.351 127.471 181.512 128.999C181.512 129.856 181.533 130.717 181.572 131.554L180.9 131.059C180.105 130.465 177.699 125.801 176.267 123.782C174.835 121.762 172.501 121.539 173.672 124.202C174.844 126.866 180.084 130.683 180.084 130.683L181.58 131.811C181.738 135.118 182.097 137.915 182.097 137.915L183.063 138.103C183.063 138.103 182.166 136.376 181.96 131.89C182.276 131.393 182.639 130.938 183.042 130.534C185.23 128.168 189.347 127.306 189.971 123.361C190.12 122.41 189.676 121.301 188.744 121.509C188.077 121.658 187.462 122.465 187.103 123.093C185.944 125.197 185.136 127.311 183.504 129.034C183.431 129.113 182.418 130.361 181.935 131.113C181.935 130.489 181.913 129.821 181.935 129.103C182.26 128.128 182.652 127.185 183.106 126.282C184.32 123.895 186.419 122.262 187.769 119.955C188.197 119.247 188.547 116.9 187.115 117.712C186.479 118.074 185.833 119.376 185.406 119.999C184.123 121.777 182.841 123.687 182.106 125.876C182.106 125.668 182.14 125.46 182.153 125.252C182.947 123.152 183.885 121.129 184.957 119.202C186.735 116.029 188.688 113.816 188.53 112.272C188.372 110.727 185.966 113.757 184.055 117.717C183.2 119.513 182.608 121.46 182.302 123.48C182.478 121.41 182.679 119.321 182.884 117.311C183.24 115.242 184.003 113.295 185.115 111.623C186.944 109.084 188.428 106.994 188.449 104.757C188.47 102.519 187.697 103.356 186.231 106.886C185.226 109.306 183.803 112.48 183.136 114.94C183.311 113.361 183.482 111.866 183.645 110.519C183.991 109.326 184.927 106.296 186.209 104.173C187.825 101.47 188.449 99.8014 187.402 99.846C186.675 99.8757 184.991 103.46 184.085 106.886C184.23 105.742 184.35 104.871 184.427 104.356C184.461 104.125 184.491 103.872 184.517 103.598C185.591 101.155 186.53 98.6349 187.329 96.0539C188.748 91.5341 188.872 87.4747 187.795 89.3955Z" fill="white"/>
</g>
<path d="M5.48862 107.179C5.68952 108.734 8.54908 113.917 9.56638 116.798C9.32274 116.397 9.04064 115.971 8.75425 115.555C8.53626 115.06 8.34819 114.541 8.12592 114.125C7.78824 113.486 7.42919 112.862 7.04022 112.263C6.43889 111.314 5.74307 110.45 4.96715 109.689C4.07554 108.777 2.97311 108.187 1.79556 107.991C1.49208 107.951 -0.341632 107.709 0.0558856 108.575C0.127606 108.711 0.229448 108.822 0.350817 108.897C1.44506 109.744 2.66326 110.224 3.82589 110.922C5.56129 111.932 7.80534 114.605 8.7457 115.739L9.21161 116.516C7.54033 114.56 4.73633 113.367 3.74468 113.838C2.5222 114.422 5.08683 115.189 7.25822 115.947C8.23182 116.245 9.12717 116.817 9.86559 117.61C10.2674 118.283 10.7205 119.05 11.1479 119.828C11.1992 119.947 11.2548 120.06 11.3103 120.174C10.9896 119.705 10.6223 119.282 10.2161 118.912C9.12185 117.971 6.04857 117.293 5.68097 118.481C5.31337 119.669 7.5275 119.219 9.39968 119.649C10.4132 119.914 11.3323 120.533 12.0327 121.422C12.0712 121.481 12.1096 121.531 12.1524 121.585C12.3533 121.942 12.5456 122.293 12.7252 122.625C13.1526 123.407 13.5501 124.14 13.9476 124.847C13.3454 123.862 12.6258 122.981 11.8104 122.229C10.2075 120.848 8.01478 120.471 7.1941 121.14C6.37342 121.808 10.0408 122.625 11.8318 123.427C12.8617 123.93 13.7636 124.729 14.452 125.748C15.0119 126.739 15.5719 127.729 16.1618 128.758C15.1846 127.671 14.1324 126.677 13.0158 125.788C11.2035 124.303 9.27145 124.397 8.74143 125.239C8.2114 126.08 9.77155 126.194 12.6696 127.05C14.1964 127.5 15.5949 128.404 16.726 129.674C16.9782 130.105 17.2432 130.546 17.521 131.006C17.8542 131.553 18.2108 132.08 18.5896 132.585C18.1023 132.308 17.3885 131.902 16.5892 131.466C15.6993 130.993 14.842 130.442 14.0246 129.818C13.0799 129.08 11.8147 128.288 10.6478 128.828C10.5596 128.853 10.4772 128.9 10.4063 128.966C10.3354 129.032 10.2776 129.114 10.237 129.209C10.1963 129.303 10.1738 129.406 10.1709 129.511C10.1681 129.616 10.1849 129.721 10.2204 129.818C10.3423 130.109 10.5456 130.345 10.7974 130.486C12.037 131.352 13.6099 131.635 14.9948 132.055C16.2593 132.443 17.5444 132.734 18.8418 132.927C19.2094 133.422 19.5898 133.877 19.966 134.323L19.3761 134.427C18.6751 134.546 15.3411 133.313 13.6783 132.991C12.0156 132.669 10.6136 133.892 12.396 134.714C14.1784 135.536 18.7478 134.679 18.7478 134.679L20.0685 134.456C21.5646 136.219 22.958 137.58 22.958 137.58L23.5778 137.135C23.5778 137.135 22.3425 136.679 20.3122 134.283C20.279 133.824 20.2891 133.363 20.3421 132.907C20.5601 130.328 22.4793 127.491 21.1671 124.927C20.8465 124.308 20.1241 123.937 19.6881 124.59C19.4179 125.144 19.3313 125.794 19.4445 126.417C19.6924 128.258 20.1412 129.882 19.9617 131.798C19.9617 131.887 19.9189 133.164 19.9617 133.857C19.6881 133.521 19.4017 133.149 19.1068 132.739C18.8738 132.005 18.6909 131.252 18.5597 130.486C18.2263 128.456 18.705 126.338 18.4785 124.278C18.4058 123.645 17.6236 122.12 17.1534 123.392C16.9525 123.956 17.1534 125.055 17.1534 125.664C17.1228 127.419 17.3452 129.168 17.8117 130.838C17.7305 130.714 17.6492 130.59 17.5723 130.461C17.1283 128.839 16.7967 127.179 16.5806 125.496C16.2259 122.704 16.3797 120.348 15.6317 119.555C14.8837 118.763 14.8239 121.877 15.4351 125.149C15.723 126.646 16.2212 128.078 16.9098 129.387C16.1276 128.125 15.3496 126.843 14.6102 125.595C13.9283 124.234 13.5261 122.71 13.4347 121.14C13.3791 118.664 13.315 116.654 12.3747 115.387C11.4343 114.12 11.3573 115.031 12.0413 117.862C12.5114 119.793 13.0628 122.382 13.751 124.145C13.1782 123.154 12.6354 122.224 12.1524 121.377C11.5434 119.77 11.1125 118.08 10.8701 116.348C10.6264 113.912 10.2674 112.62 9.69461 113.244C9.30137 113.674 9.88696 116.645 10.8401 119.085C10.4127 118.357 10.1263 117.803 9.95108 117.471C9.87129 117.323 9.78153 117.158 9.68179 116.976C9.2516 114.994 8.71483 113.044 8.07463 111.14C6.95046 107.808 5.27491 105.461 5.48862 107.179Z" fill="#FC7F00"/>
<path opacity="0.6" d="M5.48862 107.179C5.68952 108.734 8.54908 113.917 9.56638 116.798C9.32274 116.397 9.04064 115.971 8.75425 115.555C8.53626 115.06 8.34819 114.541 8.12592 114.125C7.78824 113.486 7.42919 112.862 7.04022 112.263C6.43889 111.314 5.74307 110.45 4.96715 109.689C4.07554 108.777 2.97311 108.187 1.79556 107.991C1.49208 107.951 -0.341632 107.709 0.0558856 108.575C0.127606 108.711 0.229448 108.822 0.350817 108.897C1.44506 109.744 2.66326 110.224 3.82589 110.922C5.56129 111.932 7.80534 114.605 8.7457 115.739L9.21161 116.516C7.54033 114.56 4.73633 113.367 3.74468 113.838C2.5222 114.422 5.08683 115.189 7.25822 115.947C8.23182 116.245 9.12717 116.817 9.86559 117.61C10.2674 118.283 10.7205 119.05 11.1479 119.828C11.1992 119.947 11.2548 120.06 11.3103 120.174C10.9896 119.705 10.6223 119.282 10.2161 118.912C9.12185 117.971 6.04857 117.293 5.68097 118.481C5.31337 119.669 7.5275 119.219 9.39968 119.649C10.4132 119.914 11.3323 120.533 12.0327 121.422C12.0712 121.481 12.1096 121.531 12.1524 121.585C12.3533 121.942 12.5456 122.293 12.7252 122.625C13.1526 123.407 13.5501 124.14 13.9476 124.847C13.3454 123.862 12.6258 122.981 11.8104 122.229C10.2075 120.848 8.01478 120.471 7.1941 121.14C6.37342 121.808 10.0408 122.625 11.8318 123.427C12.8617 123.93 13.7636 124.729 14.452 125.748C15.0119 126.739 15.5719 127.729 16.1618 128.758C15.1846 127.671 14.1324 126.677 13.0158 125.788C11.2035 124.303 9.27145 124.397 8.74143 125.239C8.2114 126.08 9.77155 126.194 12.6696 127.05C14.1964 127.5 15.5949 128.404 16.726 129.674C16.9782 130.105 17.2432 130.546 17.521 131.006C17.8542 131.553 18.2108 132.08 18.5896 132.585C18.1023 132.308 17.3885 131.902 16.5892 131.466C15.6993 130.993 14.842 130.442 14.0246 129.818C13.0799 129.08 11.8147 128.288 10.6478 128.828C10.5596 128.853 10.4772 128.9 10.4063 128.966C10.3354 129.032 10.2776 129.114 10.237 129.209C10.1963 129.303 10.1738 129.406 10.1709 129.511C10.1681 129.616 10.1849 129.721 10.2204 129.818C10.3423 130.109 10.5456 130.345 10.7974 130.486C12.037 131.352 13.6099 131.635 14.9948 132.055C16.2593 132.443 17.5444 132.734 18.8418 132.927C19.2094 133.422 19.5898 133.877 19.966 134.323L19.3761 134.427C18.6751 134.546 15.3411 133.313 13.6783 132.991C12.0156 132.669 10.6136 133.892 12.396 134.714C14.1784 135.536 18.7478 134.679 18.7478 134.679L20.0685 134.456C21.5646 136.219 22.958 137.58 22.958 137.58L23.5778 137.135C23.5778 137.135 22.3425 136.679 20.3122 134.283C20.279 133.824 20.2891 133.363 20.3421 132.907C20.5601 130.328 22.4793 127.491 21.1671 124.927C20.8465 124.308 20.1241 123.937 19.6881 124.59C19.4179 125.144 19.3313 125.794 19.4445 126.417C19.6924 128.258 20.1412 129.882 19.9617 131.798C19.9617 131.887 19.9189 133.164 19.9617 133.857C19.6881 133.521 19.4017 133.149 19.1068 132.739C18.8738 132.005 18.6909 131.252 18.5597 130.486C18.2263 128.456 18.705 126.338 18.4785 124.278C18.4058 123.645 17.6236 122.12 17.1534 123.392C16.9525 123.956 17.1534 125.055 17.1534 125.664C17.1228 127.419 17.3452 129.168 17.8117 130.838C17.7305 130.714 17.6492 130.59 17.5723 130.461C17.1283 128.839 16.7967 127.179 16.5806 125.496C16.2259 122.704 16.3797 120.348 15.6317 119.555C14.8837 118.763 14.8239 121.877 15.4351 125.149C15.723 126.646 16.2212 128.078 16.9098 129.387C16.1276 128.125 15.3496 126.843 14.6102 125.595C13.9283 124.234 13.5261 122.71 13.4347 121.14C13.3791 118.664 13.315 116.654 12.3747 115.387C11.4343 114.12 11.3573 115.031 12.0413 117.862C12.5114 119.793 13.0628 122.382 13.751 124.145C13.1782 123.154 12.6354 122.224 12.1524 121.377C11.5434 119.77 11.1125 118.08 10.8701 116.348C10.6264 113.912 10.2674 112.62 9.69461 113.244C9.30137 113.674 9.88696 116.645 10.8401 119.085C10.4127 118.357 10.1263 117.803 9.95108 117.471C9.87129 117.323 9.78153 117.158 9.68179 116.976C9.2516 114.994 8.71483 113.044 8.07463 111.14C6.95046 107.808 5.27491 105.461 5.48862 107.179Z" fill="white"/>
<path d="M36.4437 105.951C35.3025 106.803 32.4087 111.956 30.5622 114.224C30.7759 113.798 30.9896 113.323 31.2033 112.852C31.4897 112.422 31.8317 112.006 32.0582 111.6C32.4215 110.976 32.7635 110.338 33.0755 109.679C33.5727 108.655 33.9643 107.567 34.2424 106.437C34.5948 105.119 34.6037 103.71 34.2681 102.387C34.1783 102.05 33.6098 100.016 33.0926 100.798C33.016 100.929 32.9703 101.081 32.9601 101.239C32.7421 102.724 32.8704 104.209 32.802 105.739C32.7037 107.996 31.5453 111.461 31.0238 112.927C30.9127 113.144 30.7716 113.422 30.5964 113.739C31.4513 111.169 31.2247 107.719 30.4468 106.867C29.4808 105.818 29.9381 108.847 30.2416 111.442C30.4043 112.594 30.3236 113.774 30.0065 114.882C29.6389 115.58 29.2243 116.367 28.8011 117.164L28.5917 117.481C28.8437 116.951 29.0403 116.387 29.1773 115.803C29.4637 114.263 28.7499 110.744 27.6428 110.852C26.5357 110.961 27.8266 113.1 28.2583 115.253C28.4716 116.432 28.3641 117.658 27.9505 118.763L27.8736 118.956C27.6727 119.318 27.4804 119.664 27.2923 119.991C26.8648 120.763 26.4374 121.476 26.0442 122.194C26.5739 121.153 26.9712 120.029 27.2239 118.857C27.6513 116.595 27.0401 114.13 26.1767 113.536C25.3132 112.942 26.1767 117.144 26.2921 119.372C26.3214 120.667 26.0639 121.948 25.5441 123.095C24.9884 124.085 24.4498 125.075 23.8899 126.154C24.3326 124.674 24.6714 123.154 24.9029 121.61C25.3303 119.085 24.4498 117.085 23.5608 116.862C22.6717 116.64 23.2359 118.347 23.7574 121.753C24.0344 123.549 23.9002 125.398 23.3684 127.115C23.1333 127.56 22.8982 128.021 22.6503 128.501C22.4024 128.981 22.1032 129.654 21.8467 130.288C21.8467 129.654 21.8895 128.734 21.9023 127.714C21.9077 126.578 21.9862 125.445 22.1374 124.323C22.3297 123.026 22.4323 121.352 21.5261 120.362C21.4676 120.28 21.3941 120.214 21.311 120.169C21.2279 120.124 21.1371 120.1 21.0453 120.1C20.9534 120.1 20.8627 120.124 20.7795 120.169C20.6964 120.214 20.623 120.28 20.5644 120.362C20.397 120.597 20.3009 120.89 20.2908 121.194C20.1199 122.862 20.5473 124.659 20.7824 126.273C21.0024 127.78 21.3065 129.268 21.6928 130.729C21.4663 131.308 21.2654 131.907 21.056 132.486L20.7311 131.907C20.3507 131.219 19.9446 127.189 19.5086 125.303C19.0726 123.417 17.5339 122.441 17.6279 124.669C17.7219 126.897 20.278 131.362 20.278 131.362L21.0004 132.659C20.231 134.961 19.7181 136.996 19.7181 136.996L20.3208 137.466C20.3208 137.466 20.1712 135.981 21.2184 132.847C21.5704 132.601 21.9463 132.403 22.3383 132.258C24.4755 131.427 27.4675 132.298 28.955 129.838C29.3098 129.243 29.3012 128.352 28.6131 128.14C28.0651 128.08 27.5174 128.257 27.0743 128.635C25.7279 129.654 24.6208 130.808 23.0521 131.397C22.9794 131.427 21.9621 131.917 21.4321 132.253C21.586 131.828 21.7612 131.367 21.9621 130.887C22.44 130.343 22.9561 129.846 23.5052 129.402C24.9627 128.209 26.8264 127.842 28.3566 126.748C28.8225 126.417 29.6945 124.946 28.5062 124.991C27.9762 124.991 27.194 125.669 26.7238 125.937C25.3302 126.627 24.0459 127.583 22.9239 128.763C22.988 128.63 23.0521 128.491 23.1205 128.357C24.2102 127.202 25.378 126.149 26.6127 125.209C28.6644 123.684 30.5793 122.872 30.887 121.743C31.1948 120.615 28.7498 121.847 26.4075 123.847C25.3485 124.766 24.4285 125.882 23.6847 127.149C24.3515 125.803 25.044 124.451 25.715 123.159C26.5101 121.882 27.5485 120.833 28.7498 120.095C30.6733 119.016 32.2335 118.115 32.8404 116.63C33.4474 115.144 32.6994 115.412 30.7674 117.293C29.4423 118.585 27.6342 120.234 26.5272 121.674C27.0657 120.684 27.5787 119.694 28.0446 118.847C29.0554 117.548 30.2044 116.402 31.4641 115.437C33.2807 114.174 34.1484 113.258 33.4218 112.917C32.9174 112.679 30.8229 114.521 29.297 116.531L30.1989 114.932C30.2844 114.783 30.3741 114.62 30.4639 114.437C31.8404 113.165 33.1466 111.794 34.3749 110.333C36.5335 107.744 37.6919 105.026 36.4437 105.951Z" fill="#FC7F00"/>
<path opacity="0.6" d="M36.4437 105.951C35.3025 106.803 32.4087 111.956 30.5622 114.224C30.7759 113.798 30.9896 113.323 31.2033 112.852C31.4897 112.422 31.8317 112.006 32.0582 111.6C32.4215 110.976 32.7635 110.338 33.0755 109.679C33.5727 108.655 33.9643 107.567 34.2424 106.437C34.5948 105.119 34.6037 103.71 34.2681 102.387C34.1783 102.05 33.6098 100.016 33.0926 100.798C33.016 100.929 32.9703 101.081 32.9601 101.239C32.7421 102.724 32.8704 104.209 32.802 105.739C32.7037 107.996 31.5453 111.461 31.0238 112.927C30.9127 113.144 30.7716 113.422 30.5964 113.739C31.4513 111.169 31.2247 107.719 30.4468 106.867C29.4808 105.818 29.9381 108.847 30.2416 111.442C30.4043 112.594 30.3236 113.774 30.0065 114.882C29.6389 115.58 29.2243 116.367 28.8011 117.164L28.5917 117.481C28.8437 116.951 29.0403 116.387 29.1773 115.803C29.4637 114.263 28.7499 110.744 27.6428 110.852C26.5357 110.961 27.8266 113.1 28.2583 115.253C28.4716 116.432 28.3641 117.658 27.9505 118.763L27.8736 118.956C27.6727 119.318 27.4804 119.664 27.2923 119.991C26.8648 120.763 26.4374 121.476 26.0442 122.194C26.5739 121.153 26.9712 120.029 27.2239 118.857C27.6513 116.595 27.0401 114.13 26.1767 113.536C25.3132 112.942 26.1767 117.144 26.2921 119.372C26.3214 120.667 26.0639 121.948 25.5441 123.095C24.9884 124.085 24.4498 125.075 23.8899 126.154C24.3326 124.674 24.6714 123.154 24.9029 121.61C25.3303 119.085 24.4498 117.085 23.5608 116.862C22.6717 116.64 23.2359 118.347 23.7574 121.753C24.0344 123.549 23.9002 125.398 23.3684 127.115C23.1333 127.56 22.8982 128.021 22.6503 128.501C22.4024 128.981 22.1032 129.654 21.8467 130.288C21.8467 129.654 21.8895 128.734 21.9023 127.714C21.9077 126.578 21.9862 125.445 22.1374 124.323C22.3297 123.026 22.4323 121.352 21.5261 120.362C21.4676 120.28 21.3941 120.214 21.311 120.169C21.2279 120.124 21.1371 120.1 21.0453 120.1C20.9534 120.1 20.8627 120.124 20.7795 120.169C20.6964 120.214 20.623 120.28 20.5644 120.362C20.397 120.597 20.3009 120.89 20.2908 121.194C20.1199 122.862 20.5473 124.659 20.7824 126.273C21.0024 127.78 21.3065 129.268 21.6928 130.729C21.4663 131.308 21.2654 131.907 21.056 132.486L20.7311 131.907C20.3507 131.219 19.9446 127.189 19.5086 125.303C19.0726 123.417 17.5339 122.441 17.6279 124.669C17.7219 126.897 20.278 131.362 20.278 131.362L21.0004 132.659C20.231 134.961 19.7181 136.996 19.7181 136.996L20.3208 137.466C20.3208 137.466 20.1712 135.981 21.2184 132.847C21.5704 132.601 21.9463 132.403 22.3383 132.258C24.4755 131.427 27.4675 132.298 28.955 129.838C29.3098 129.243 29.3012 128.352 28.6131 128.14C28.0651 128.08 27.5174 128.257 27.0743 128.635C25.7279 129.654 24.6208 130.808 23.0521 131.397C22.9794 131.427 21.9621 131.917 21.4321 132.253C21.586 131.828 21.7612 131.367 21.9621 130.887C22.44 130.343 22.9561 129.846 23.5052 129.402C24.9627 128.209 26.8264 127.842 28.3566 126.748C28.8225 126.417 29.6945 124.946 28.5062 124.991C27.9762 124.991 27.194 125.669 26.7238 125.937C25.3302 126.627 24.0459 127.583 22.9239 128.763C22.988 128.63 23.0521 128.491 23.1205 128.357C24.2102 127.202 25.378 126.149 26.6127 125.209C28.6644 123.684 30.5793 122.872 30.887 121.743C31.1948 120.615 28.7498 121.847 26.4075 123.847C25.3485 124.766 24.4285 125.882 23.6847 127.149C24.3515 125.803 25.044 124.451 25.715 123.159C26.5101 121.882 27.5485 120.833 28.7498 120.095C30.6733 119.016 32.2335 118.115 32.8404 116.63C33.4474 115.144 32.6994 115.412 30.7674 117.293C29.4423 118.585 27.6342 120.234 26.5272 121.674C27.0657 120.684 27.5787 119.694 28.0446 118.847C29.0554 117.548 30.2044 116.402 31.4641 115.437C33.2807 114.174 34.1484 113.258 33.4218 112.917C32.9174 112.679 30.8229 114.521 29.297 116.531L30.1989 114.932C30.2844 114.783 30.3741 114.62 30.4639 114.437C31.8404 113.165 33.1466 111.794 34.3749 110.333C36.5335 107.744 37.6919 105.026 36.4437 105.951Z" fill="white"/>
<path d="M48.9766 106.085C47.8311 106.941 44.9373 112.095 43.0908 114.357C43.3045 113.936 43.5182 113.461 43.7319 112.986C44.0183 112.56 44.3603 112.139 44.5868 111.738C44.9501 111.114 45.2921 110.476 45.6041 109.817C46.1005 108.793 46.4921 107.704 46.771 106.575C47.1227 105.257 47.1331 103.849 46.8009 102.525C46.7069 102.189 46.1384 100.154 45.6212 100.931C45.5451 101.064 45.4995 101.218 45.4887 101.377C45.275 102.862 45.3989 104.347 45.3305 105.872C45.2322 108.134 44.0739 111.599 43.5524 113.065C43.4413 113.283 43.3002 113.56 43.125 113.877C43.9798 111.302 43.7576 107.852 42.9754 107.005C42.0093 105.956 42.4667 108.986 42.7702 111.58C42.9354 112.73 42.8547 113.91 42.5351 115.015C42.1675 115.718 41.7529 116.5 41.3297 117.302C41.2571 117.406 41.1887 117.515 41.1203 117.619C41.3576 117.087 41.5398 116.523 41.6631 115.941C41.9538 114.401 41.2357 110.882 40.1286 110.991C39.0216 111.099 40.3124 113.238 40.7441 115.392C40.958 116.569 40.8504 117.793 40.4364 118.896L40.3594 119.094C40.1585 119.451 39.9662 119.802 39.7781 120.129C39.3507 120.896 38.9232 121.614 38.53 122.332C39.0605 121.29 39.4578 120.164 39.7097 118.991C40.1372 116.733 39.5259 114.268 38.6625 113.674C37.7991 113.08 38.6839 117.283 38.7779 119.51C38.8073 120.805 38.5497 122.087 38.0299 123.233C37.4742 124.223 36.9357 125.213 36.3757 126.292C36.8235 124.814 37.168 123.296 37.4058 121.753C37.8333 119.228 36.9528 117.228 36.0637 117.005C35.1746 116.783 35.7388 118.491 36.2646 121.896C36.538 123.693 36.4025 125.541 35.8713 127.258C35.6362 127.703 35.4012 128.164 35.1532 128.644C34.9053 129.124 34.6061 129.797 34.3497 130.426C34.3497 129.797 34.3924 128.877 34.4052 127.852C34.4108 126.718 34.4893 125.586 34.6403 124.466C34.8327 123.169 34.9352 121.495 34.0291 120.505C33.9705 120.423 33.8971 120.357 33.8139 120.312C33.7308 120.267 33.6401 120.243 33.5482 120.243C33.4563 120.243 33.3656 120.267 33.2825 120.312C33.1994 120.357 33.1259 120.423 33.0673 120.505C32.9 120.74 32.8039 121.033 32.7938 121.337C32.6228 123 33.0502 124.802 33.2853 126.416C33.5056 127.913 33.8097 129.391 34.1958 130.842C33.9692 131.426 33.7683 132.02 33.5589 132.604L33.234 132.02C32.8536 131.332 32.4476 127.307 32.0116 125.421C31.5756 123.535 30.0368 122.56 30.1308 124.788C30.2249 127.015 32.781 131.476 32.781 131.476L33.5033 132.773C32.7339 135.08 32.221 137.114 32.221 137.114L32.8237 137.585C32.8237 137.585 32.6741 136.099 33.7213 132.966C34.0676 132.738 34.4346 132.555 34.8156 132.421C36.9528 131.59 39.9448 132.466 41.4323 130.005C41.7871 129.406 41.7785 128.495 41.0904 128.307C40.5422 128.246 39.9938 128.422 39.5516 128.802C38.2051 129.822 37.0981 130.976 35.5294 131.565C35.4567 131.59 34.4394 132.085 33.9094 132.421C34.0633 131.991 34.2385 131.535 34.4394 131.05C34.9183 130.507 35.4343 130.011 35.9825 129.565C37.4443 128.372 39.3037 128.005 40.8339 126.911C41.3041 126.58 42.1718 125.109 40.9835 125.149C40.4535 125.149 39.6713 125.832 39.2011 126.094C37.8081 126.789 36.5241 127.746 35.4011 128.926L35.5978 128.515C36.6941 127.368 37.8676 126.323 39.107 125.392C41.1587 123.862 43.0737 123.055 43.3814 121.926C43.6892 120.797 41.2442 122.03 38.9019 124.03C37.8429 124.949 36.9228 126.065 36.1791 127.332C36.8459 125.986 37.5383 124.634 38.2094 123.337C39.0005 122.057 40.0343 121.003 41.2314 120.258C43.1549 119.179 44.715 118.278 45.322 116.768C45.929 115.258 45.1809 115.545 43.2489 117.431C41.9239 118.718 40.1158 120.372 39.0087 121.812C39.5473 120.797 40.0602 119.832 40.5261 118.981C41.5384 117.684 42.6873 116.54 43.9456 115.575C45.7623 114.307 46.63 113.396 45.9033 113.055C45.3989 112.817 43.3045 114.659 41.7785 116.669C42.206 115.941 42.4966 115.392 42.6804 115.07C42.7659 114.921 42.8557 114.758 42.9454 114.575C44.3229 113.304 45.6305 111.935 46.8608 110.476C49.0578 107.882 50.2162 105.164 48.9766 106.085Z" fill="#FC7F00"/>
<path opacity="0.6" d="M48.9766 106.085C47.8311 106.941 44.9373 112.095 43.0908 114.357C43.3045 113.936 43.5182 113.461 43.7319 112.986C44.0183 112.56 44.3603 112.139 44.5868 111.738C44.9501 111.114 45.2921 110.476 45.6041 109.817C46.1005 108.793 46.4921 107.704 46.771 106.575C47.1227 105.257 47.1331 103.849 46.8009 102.525C46.7069 102.189 46.1384 100.154 45.6212 100.931C45.5451 101.064 45.4995 101.218 45.4887 101.377C45.275 102.862 45.3989 104.347 45.3305 105.872C45.2322 108.134 44.0739 111.599 43.5524 113.065C43.4413 113.283 43.3002 113.56 43.125 113.877C43.9798 111.302 43.7576 107.852 42.9754 107.005C42.0093 105.956 42.4667 108.986 42.7702 111.58C42.9354 112.73 42.8547 113.91 42.5351 115.015C42.1675 115.718 41.7529 116.5 41.3297 117.302C41.2571 117.406 41.1887 117.515 41.1203 117.619C41.3576 117.087 41.5398 116.523 41.6631 115.941C41.9538 114.401 41.2357 110.882 40.1286 110.991C39.0216 111.099 40.3124 113.238 40.7441 115.392C40.958 116.569 40.8504 117.793 40.4364 118.896L40.3594 119.094C40.1585 119.451 39.9662 119.802 39.7781 120.129C39.3507 120.896 38.9232 121.614 38.53 122.332C39.0605 121.29 39.4578 120.164 39.7097 118.991C40.1372 116.733 39.5259 114.268 38.6625 113.674C37.7991 113.08 38.6839 117.283 38.7779 119.51C38.8073 120.805 38.5497 122.087 38.0299 123.233C37.4742 124.223 36.9357 125.213 36.3757 126.292C36.8235 124.814 37.168 123.296 37.4058 121.753C37.8333 119.228 36.9528 117.228 36.0637 117.005C35.1746 116.783 35.7388 118.491 36.2646 121.896C36.538 123.693 36.4025 125.541 35.8713 127.258C35.6362 127.703 35.4012 128.164 35.1532 128.644C34.9053 129.124 34.6061 129.797 34.3497 130.426C34.3497 129.797 34.3924 128.877 34.4052 127.852C34.4108 126.718 34.4893 125.586 34.6403 124.466C34.8327 123.169 34.9352 121.495 34.0291 120.505C33.9705 120.423 33.8971 120.357 33.8139 120.312C33.7308 120.267 33.6401 120.243 33.5482 120.243C33.4563 120.243 33.3656 120.267 33.2825 120.312C33.1994 120.357 33.1259 120.423 33.0673 120.505C32.9 120.74 32.8039 121.033 32.7938 121.337C32.6228 123 33.0502 124.802 33.2853 126.416C33.5056 127.913 33.8097 129.391 34.1958 130.842C33.9692 131.426 33.7683 132.02 33.5589 132.604L33.234 132.02C32.8536 131.332 32.4476 127.307 32.0116 125.421C31.5756 123.535 30.0368 122.56 30.1308 124.788C30.2249 127.015 32.781 131.476 32.781 131.476L33.5033 132.773C32.7339 135.08 32.221 137.114 32.221 137.114L32.8237 137.585C32.8237 137.585 32.6741 136.099 33.7213 132.966C34.0676 132.738 34.4346 132.555 34.8156 132.421C36.9528 131.59 39.9448 132.466 41.4323 130.005C41.7871 129.406 41.7785 128.495 41.0904 128.307C40.5422 128.246 39.9938 128.422 39.5516 128.802C38.2051 129.822 37.0981 130.976 35.5294 131.565C35.4567 131.59 34.4394 132.085 33.9094 132.421C34.0633 131.991 34.2385 131.535 34.4394 131.05C34.9183 130.507 35.4343 130.011 35.9825 129.565C37.4443 128.372 39.3037 128.005 40.8339 126.911C41.3041 126.58 42.1718 125.109 40.9835 125.149C40.4535 125.149 39.6713 125.832 39.2011 126.094C37.8081 126.789 36.5241 127.746 35.4011 128.926L35.5978 128.515C36.6941 127.368 37.8676 126.323 39.107 125.392C41.1587 123.862 43.0737 123.055 43.3814 121.926C43.6892 120.797 41.2442 122.03 38.9019 124.03C37.8429 124.949 36.9228 126.065 36.1791 127.332C36.8459 125.986 37.5383 124.634 38.2094 123.337C39.0005 122.057 40.0343 121.003 41.2314 120.258C43.1549 119.179 44.715 118.278 45.322 116.768C45.929 115.258 45.1809 115.545 43.2489 117.431C41.9239 118.718 40.1158 120.372 39.0087 121.812C39.5473 120.797 40.0602 119.832 40.5261 118.981C41.5384 117.684 42.6873 116.54 43.9456 115.575C45.7623 114.307 46.63 113.396 45.9033 113.055C45.3989 112.817 43.3045 114.659 41.7785 116.669C42.206 115.941 42.4966 115.392 42.6804 115.07C42.7659 114.921 42.8557 114.758 42.9454 114.575C44.3229 113.304 45.6305 111.935 46.8608 110.476C49.0578 107.882 50.2162 105.164 48.9766 106.085Z" fill="white"/>
<path d="M181.965 12.3237C181.965 12.3237 180.328 6.87813 175.617 6.63556C170.907 6.39299 171.728 11.6157 168.454 13.0365C165.179 14.4573 163.948 10.4276 161.08 11.3781C158.212 12.3286 160.059 14.9326 157.601 15.8831C155.143 16.8336 155.348 14.2247 151.664 16.3781C147.979 18.5316 147.159 19.2246 146.338 19.4623C145.517 19.6999 138.148 21.1207 138.148 21.1207H189.133C189.133 21.1207 190.569 15.9029 187.701 13.7692C184.833 11.6355 185.038 14.2247 181.965 12.3237Z" fill="#FC7F00"/>
<path opacity="0.7" d="M181.965 12.3237C181.965 12.3237 180.328 6.87813 175.617 6.63556C170.907 6.39299 171.728 11.6157 168.454 13.0365C165.179 14.4573 163.948 10.4276 161.08 11.3781C158.212 12.3286 160.059 14.9326 157.601 15.8831C155.143 16.8336 155.348 14.2247 151.664 16.3781C147.979 18.5316 147.159 19.2246 146.338 19.4623C145.517 19.6999 138.148 21.1207 138.148 21.1207H189.133C189.133 21.1207 190.569 15.9029 187.701 13.7692C184.833 11.6355 185.038 14.2247 181.965 12.3237Z" fill="white"/>
<path d="M88.2785 3.51117C88.2785 3.51117 87.2826 0.204243 84.4316 0.0458275C81.5806 -0.112588 82.0764 3.06068 80.0888 3.92701C78.1012 4.79334 77.3575 2.34285 75.6178 2.93691C73.8781 3.53097 74.998 5.09532 73.5105 5.66958C72.0231 6.24384 72.1427 4.67948 69.9072 5.95671C67.6717 7.23393 67.1802 7.68443 66.6801 7.82799C66.18 7.97156 61.7175 8.81809 61.7175 8.81809H92.6256C92.6256 8.81809 93.4805 5.65473 91.7707 4.36265C90.061 3.07057 90.1379 4.65968 88.2785 3.51117Z" fill="#FC7F00"/>
<path opacity="0.8" d="M88.2785 3.51117C88.2785 3.51117 87.2826 0.204243 84.4316 0.0458275C81.5806 -0.112588 82.0764 3.06068 80.0888 3.92701C78.1012 4.79334 77.3575 2.34285 75.6178 2.93691C73.8781 3.53097 74.998 5.09532 73.5105 5.66958C72.0231 6.24384 72.1427 4.67948 69.9072 5.95671C67.6717 7.23393 67.1802 7.68443 66.6801 7.82799C66.18 7.97156 61.7175 8.81809 61.7175 8.81809H92.6256C92.6256 8.81809 93.4805 5.65473 91.7707 4.36265C90.061 3.07057 90.1379 4.65968 88.2785 3.51117Z" fill="white"/>
<path d="M36.2857 61.6338C36.2857 61.6338 34.9478 57.1784 31.1052 56.9902C27.2625 56.8021 27.925 61.0546 25.2535 62.218C22.5821 63.3813 21.5733 60.0843 19.2352 60.8615C16.8971 61.6388 18.3803 63.7625 16.3928 64.5397C14.4052 65.317 14.5548 63.1833 11.5456 64.9259C8.53644 66.6684 7.86964 67.2477 7.19856 67.4457C6.52748 67.6437 0.513428 68.7972 0.513428 68.7972H42.1374C42.1374 68.7972 43.3043 64.5397 40.9662 62.7972C38.6281 61.0546 38.7905 63.1932 36.2857 61.6338Z" fill="#FC7F00"/>
<g opacity="0.7">
<path d="M36.2857 61.6341C36.2857 61.6341 34.9478 57.1787 31.1052 56.9905C27.2625 56.8024 27.925 61.0549 25.2535 62.2183C22.5821 63.3816 21.5733 60.0846 19.2352 60.8618C16.8971 61.6391 18.3803 63.7628 16.3928 64.54C14.4052 65.3173 14.5548 63.1836 11.5456 64.9262C8.53644 66.6687 7.86964 67.248 7.19856 67.446C6.52748 67.644 0.513428 68.7975 0.513428 68.7975H42.1374C42.1374 68.7975 43.3043 64.54 40.9662 62.7975C38.6281 61.0549 38.7905 63.1935 36.2857 61.6341Z" fill="white"/>
</g>
<path d="M85.7284 149.999C110.766 149.999 131.062 148.332 131.062 146.276C131.062 144.22 110.766 142.554 85.7284 142.554C60.6911 142.554 40.3943 144.22 40.3943 146.276C40.3943 148.332 60.6911 149.999 85.7284 149.999Z" fill="#FC7F00"/>
<path d="M128.206 143.802C142.401 143.802 153.908 142.969 153.908 141.941C153.908 140.913 142.401 140.079 128.206 140.079C114.012 140.079 102.505 140.913 102.505 141.941C102.505 142.969 114.012 143.802 128.206 143.802Z" fill="#FC7F00"/>
<g opacity="0.6">
<path d="M85.7274 149.999C110.765 149.999 131.062 148.332 131.062 146.276C131.062 144.22 110.765 142.553 85.7274 142.553C60.6901 142.553 40.3933 144.22 40.3933 146.276C40.3933 148.332 60.6901 149.999 85.7274 149.999Z" fill="white"/>
<path d="M128.206 143.802C142.4 143.802 153.907 142.968 153.907 141.94C153.907 140.912 142.4 140.079 128.206 140.079C114.011 140.079 102.504 140.912 102.504 141.94C102.504 142.968 114.011 143.802 128.206 143.802Z" fill="white"/>
</g>
<path d="M85.3992 90.768L93.3709 84.1542" stroke="#263238" stroke-width="0.135993" stroke-linecap="round" stroke-linejoin="round"/>
<path d="M110.597 136.714L110.148 142.58C110.148 142.58 107.878 143.733 107.883 144.12C107.887 144.506 108.31 145.035 110.161 145.035C112.012 145.035 112.614 144.224 112.614 143.615C112.614 143.006 116.555 137.931 116.555 137.931C116.652 137.627 116.679 137.298 116.633 136.978C116.587 136.658 116.471 136.357 116.295 136.105C115.679 135.293 113.576 135.194 113.576 135.194L110.597 136.714Z" fill="#FC7F00"/>
<path d="M107.886 144.51C107.886 144.51 110.968 144.277 111.793 143.733C112.618 143.188 115.555 138.01 115.79 137.599C115.944 137.264 116.024 136.89 116.025 136.51" stroke="#263238" stroke-width="0.0679966" stroke-linecap="round" stroke-linejoin="round"/>
<path d="M114.546 135.277C114.546 135.277 117.047 135.827 116.808 137.069C116.568 138.312 112.644 143.822 112.05 144.495C111.456 145.168 107.776 145.183 107.887 144.495C107.998 143.807 110.148 142.564 110.148 142.564L110.862 137.614" stroke="#263238" stroke-width="0.135993" stroke-linecap="round" stroke-linejoin="round"/>
<path d="M61.8863 141.481L54.5258 145.645C54.5258 145.645 53.5641 146.457 55.4918 146.457C57.4195 146.457 67.5798 146.556 67.5798 146.556C67.5798 146.556 68.721 146.863 68.9817 146.254C69.4092 145.264 69.5973 144.63 69.3322 144.323C69.0672 144.016 61.8863 141.481 61.8863 141.481Z" fill="#FC7F00"/>
<path d="M55.2175 145.502H68.2758" stroke="#263238" stroke-width="0.0679966" stroke-linecap="round" stroke-linejoin="round"/>
<path d="M61.3905 142.009C61.3905 142.009 53.8932 145.731 54.0129 146.142C54.1326 146.553 61.6256 146.558 64.4808 146.558C67.3361 146.558 69.3622 146.697 69.3622 145.87" stroke="#263238" stroke-width="0.135993" stroke-linecap="round" stroke-linejoin="round"/>
<path d="M114.546 135.277L89.8018 114.332L88.947 93.2474C88.035 94.177 87.0058 94.9399 85.8951 95.5098C84.3648 96.188 75.4998 101.376 75.4998 101.376C75.4998 101.376 79.4279 117.5 80.1417 118.881C80.8556 120.262 110.84 137.619 110.84 137.619L114.546 135.277Z" fill="#263238"/>
<path d="M69.3571 145.045C69.3571 145.045 68.404 144.768 67.3354 144.491C66.2668 144.213 61.3854 142.015 61.3854 142.015C61.2888 141.566 61.2485 141.102 61.2657 140.639C61.2783 140.341 61.349 140.049 61.4727 139.787C61.5963 139.524 61.7696 139.298 61.9796 139.124C61.9796 139.124 43.4159 110.461 42.9415 109.634C42.467 108.807 42.8218 107.426 46.0361 104.535C49.2504 101.644 70.2804 86.7778 70.2804 86.7778C69.4725 85.6689 70.9942 84.9857 70.9942 84.9857L72.9006 85.6738L85.3946 90.7728L90.3914 86.9164C90.3914 86.9164 91.2249 90.4956 88.1302 93.253C85.0356 96.0104 56.7434 110.58 56.7434 110.58L56.2733 110.614L69.0024 142.822C69.0024 142.822 69.8572 144.585 69.3571 145.045Z" fill="#263238"/>
<path d="M53.572 106.95L55.9229 110.356L54.9826 105.861" stroke="white" stroke-width="0.135993" stroke-linecap="round" stroke-linejoin="round"/>
<path d="M76.7439 101.64C76.7439 101.64 81.5654 110.358 83.3307 112.13" stroke="white" stroke-width="0.135993" stroke-linecap="round" stroke-linejoin="round"/>
<path d="M77.449 101.367C78.7781 102.714 80.1926 103.944 81.6806 105.045" stroke="white" stroke-width="0.135993" stroke-linecap="round" stroke-linejoin="round"/>
<g style="mix-blend-mode:multiply">
<path d="M85.9045 55.2133L69.2087 68.3915L72.8591 85.8172L85.2505 90.6291L101.784 76.9856L99.7877 59.4559L85.9045 55.2133Z" fill="#FC7F00"/>
</g>
<path d="M69.2976 68.3925L70.3577 73.838" stroke="#263238" stroke-width="0.135993" stroke-linecap="round" stroke-linejoin="round"/>
<path d="M71.239 77.8125L72.906 85.6689L85.4 90.7679L83.8527 77.8125" stroke="#263238" stroke-width="0.135993" stroke-linecap="round" stroke-linejoin="round"/>
<path d="M83.732 76.7136L83.2576 73.4067" stroke="#263238" stroke-width="0.135993" stroke-linecap="round" stroke-linejoin="round"/>
<path d="M98.4871 80.02L101.817 77.1239L100.15 60.7279" stroke="#263238" stroke-width="0.135993" stroke-linecap="round" stroke-linejoin="round"/>
<path d="M84.9207 72.4403L93.9652 64.5839" stroke="#263238" stroke-width="0.135993" stroke-linecap="round" stroke-linejoin="round"/>
<path d="M93.4905 57.5549L85.9932 55.2133L69.571 68.1687" stroke="#263238" stroke-width="0.135993" stroke-linecap="round" stroke-linejoin="round"/>
<path d="M69.6902 68.7192L72.1907 69.5469" stroke="#263238" stroke-width="0.135993" stroke-linecap="round" stroke-linejoin="round"/>
<path d="M76.4753 70.6483L83.2588 72.8513" stroke="#263238" stroke-width="0.135993" stroke-linecap="round" stroke-linejoin="round"/>
<path d="M92.2981 57.2822L82.0652 66.3762" stroke="#263238" stroke-width="0.0679966" stroke-linecap="round" stroke-linejoin="round"/>
<path d="M81.2315 67.2025L77.5427 70.5094" stroke="#263238" stroke-width="0.0679966" stroke-linecap="round" stroke-linejoin="round"/>
<path d="M92.5545 49.6785C92.5545 49.6785 95.1533 74.5051 95.1533 75.6091C95.1533 76.7131 92.7725 77.2626 92.7725 78.6388C92.7058 79.7674 92.5059 80.8801 92.1783 81.9457C92.1783 81.9457 91.7039 82.5002 91.7039 82.9358C91.7039 83.3715 92.5374 83.2131 93.2512 82.8022C93.965 82.3913 94.2001 80.8715 94.2001 80.8715C94.0368 81.7821 93.9183 82.7027 93.8453 83.6289L93.3709 84.1784C93.3709 84.1784 91.9432 85.6933 92.8921 85.8319C93.841 85.9705 98.2479 84.0398 98.4873 82.8022C98.7267 81.5646 97.8889 75.6339 97.8889 75.6339C97.8889 75.6339 101.343 47.6587 101.343 45.0399C101.359 44.308 101.187 43.5871 100.847 42.9696C100.507 42.3521 100.016 41.8663 99.4362 41.5745" fill="white"/>
<mask id="mask0_320_920" style="mask-type:luminance" maskUnits="userSpaceOnUse" x="91" y="41" width="11" height="45">
<path d="M92.5535 49.682C92.5535 49.682 95.1523 74.5086 95.1523 75.6126C95.1523 76.7165 92.7715 77.2661 92.7715 78.6423C92.7049 79.7709 92.5049 80.8835 92.1773 81.9492C92.1773 81.9492 91.7029 82.5037 91.7029 82.9393C91.7029 83.375 92.5364 83.2165 93.2502 82.8057C93.964 82.3948 94.1991 80.875 94.1991 80.875C94.0358 81.7856 93.9174 82.7062 93.8443 83.6324L93.3699 84.1819C93.3699 84.1819 91.9422 85.6967 92.8912 85.8353C93.8401 85.974 98.247 84.0433 98.4863 82.8057C98.7257 81.568 97.8879 75.6373 97.8879 75.6373C97.8879 75.6373 101.342 47.6621 101.342 45.0433C101.358 44.3115 101.186 43.5905 100.846 42.9731C100.506 42.3556 100.015 41.8698 99.4352 41.578" fill="white"/>
</mask>
<g mask="url(#mask0_320_920)">
<g style="mix-blend-mode:multiply" opacity="0.3">
<path d="M101.325 48.5251C100.825 46.3222 100.282 42.3222 100.282 42.3222L98.0162 41.5251L95.0242 45.6885L97.3879 44.0053V77.0399C97.3879 78.7231 95.5713 85.2429 95.5713 85.2429C95.5713 85.2429 99.3285 84.327 98.7215 80.3667C98.1146 76.4063 97.3879 77.0399 98.4779 69.0449C99.5678 61.0499 101.842 50.743 101.325 48.5251Z" fill="#FC7F00"/>
</g>
</g>
<path d="M92.5545 49.6785C92.5545 49.6785 95.1533 74.5052 95.1533 75.6091C95.1533 76.7131 92.7725 77.2626 92.7725 78.6388C92.7058 79.7674 92.5059 80.8801 92.1783 81.9457C92.1783 81.9457 91.7039 82.5002 91.7039 82.9358C91.7039 83.3715 92.5374 83.2131 93.2512 82.8022C93.965 82.3913 94.2001 80.8715 94.2001 80.8715C94.0368 81.7821 93.9183 82.7027 93.8453 83.6289L93.3709 84.1784C93.3709 84.1784 91.9432 85.6933 92.8921 85.8319C93.841 85.9705 98.2479 84.0398 98.4873 82.8022C98.7267 81.5646 97.8889 75.6339 97.8889 75.6339C97.8889 75.6339 101.343 47.6587 101.343 45.0399C101.359 44.308 101.187 43.5871 100.847 42.9696C100.507 42.3521 100.016 41.8663 99.4362 41.5745" stroke="#263238" stroke-width="0.135993" stroke-linecap="round" stroke-linejoin="round"/>
<path d="M95.4313 82.5699C95.5608 83.1582 95.5187 83.7795 95.3116 84.3372C95.0777 84.78 94.8025 85.1917 94.491 85.5649" stroke="#263238" stroke-width="0.0679966" stroke-linecap="round" stroke-linejoin="round"/>
<path d="M96.8545 82.5699C96.7844 83.127 96.6655 83.6743 96.4998 84.2035" stroke="#263238" stroke-width="0.0679966" stroke-linecap="round" stroke-linejoin="round"/>
<path d="M97.9151 82.1597C97.8432 82.7164 97.7243 83.2636 97.5603 83.7934" stroke="#263238" stroke-width="0.0679966" stroke-linecap="round" stroke-linejoin="round"/>
<path d="M59.4756 30.5662C59.3388 29.1404 56.8768 26.4474 53.4573 25.6553C50.0378 24.8632 46.3404 24.8632 44.9726 26.1503C44.4597 26.6206 44.1178 27.7147 43.8955 28.8929C44.1391 28.2889 44.6307 27.0662 45.1393 26.5761C47.6569 24.1454 48.3579 25.586 48.7768 27.7097C49.1957 29.8335 48.6358 35.6305 48.6358 35.6305C48.6358 35.6305 42.8996 37.576 43.7373 34.1701C43.6143 33.6848 43.5285 33.1878 43.4809 32.685C43.4809 32.9374 43.4809 33.0909 43.4809 33.0909L43.2073 35.1503L40.882 35.6453L32.8035 35.3483C32.8035 35.3483 36.9154 38.3186 39.2407 38.3186C40.7433 38.2469 42.1832 37.6011 43.3355 36.482L58.2959 37.8038C58.2959 37.8038 59.6124 31.9919 59.4756 30.5662Z" fill="#FC7F00"/>
<path d="M42.0357 35.5061L32.7859 35.3427C32.7859 35.3427 35.3505 38.1447 38.77 38.1447C42.1895 38.1447 43.3265 36.4962 43.3265 36.4962L58.2869 37.818C58.2869 37.818 60.2402 33.5061 59.2443 29.719C58.2484 25.9318 49.2722 24.6596 46.7759 25.3576C43.6898 26.2239 43.4847 29.2437 43.4847 30.8922C43.4621 32.108 43.3664 33.3205 43.1983 34.5209" stroke="#263238" stroke-width="0.135993" stroke-linecap="round" stroke-linejoin="round"/>
<mask id="mask1_320_920" style="mask-type:luminance" maskUnits="userSpaceOnUse" x="41" y="36" width="19" height="23">
<path d="M42.7498 36.9916C42.7498 36.9916 41.1811 41.2787 41.8949 41.9421C42.6088 42.6054 43.0319 42.9322 43.0319 42.9322C43.0319 42.9322 43.4594 48.6995 44.1689 49.6896C44.8785 50.6797 49.4349 49.0312 49.4349 49.0312C49.4349 49.0312 58.6719 59.7391 58.9711 57.7589C59.2703 55.7787 58.1162 48.3529 58.1162 47.5411C58.1162 46.7292 56.1244 44.5708 56.1244 44.5708" fill="white"/>
</mask>
<g mask="url(#mask1_320_920)">
<g style="mix-blend-mode:multiply" opacity="0.3">
<path d="M50.6827 37.2344L44.643 37.3582C44.643 37.3582 42.9332 40.3037 43.3607 41.1651C43.6915 41.7607 44.1287 42.2671 44.643 42.6503C44.643 42.6503 44.2155 46.581 44.7498 47.9324C45.2841 49.2839 49.52 48.6651 49.52 48.6651C48.5827 49.3071 47.5289 49.6868 46.4425 49.774C44.4293 50.0166 43.7967 49.5265 43.4761 48.175C43.1555 46.8235 43.0486 42.9424 43.0486 42.9424L41.574 41.1651L42.634 37.8483L43.8009 36.5018L50.6827 37.2344Z" fill="#FC7F00"/>
</g>
</g>
<path d="M42.7498 36.9907C42.7498 36.9907 41.1811 41.2778 41.8949 41.9411C42.6088 42.6045 43.0319 42.9312 43.0319 42.9312C43.0319 42.9312 43.4594 48.6986 44.1689 49.6887C44.8785 50.6787 49.4349 49.0302 49.4349 49.0302C49.4349 49.0302 58.6719 59.7381 58.9711 57.7579C59.2703 55.7778 58.1162 48.352 58.1162 47.5401C58.1162 46.7283 56.1244 44.5699 56.1244 44.5699" stroke="#263238" stroke-width="0.135993" stroke-linecap="round" stroke-linejoin="round"/>
<path d="M51.0037 37.153C51.0037 37.153 51.2858 38.6381 52.1406 38.8015C52.9955 38.9648 53.7051 37.3163 53.7051 37.3163L51.0037 37.153Z" fill="#263238"/>
<path d="M58.2442 37.8168C58.2442 37.8168 59.0991 40.7871 58.0989 42.4306C57.0986 44.0742 56.6798 44.0791 56.6798 44.0791C55.8249 45.7276 53.5466 42.0989 53.5466 42.0989C53.5466 42.0989 55.2564 42.0098 55.6838 40.693C56.1113 39.3762 55.5128 37.4504 55.5128 37.4504L58.2442 37.8168Z" fill="#263238"/>
<path d="M55.6793 37.8177C55.6793 37.8177 56.1068 40.1247 55.6793 41.2831C55.2519 42.4415 53.5421 42.1049 53.5421 42.1049L52.6873 44.5801" stroke="#263238" stroke-width="0.135993" stroke-linecap="round" stroke-linejoin="round"/>
<path d="M44.0447 43.8809C44.0447 43.8809 45.6946 44.2918 46.7504 42.1086" stroke="#263238" stroke-width="0.101995" stroke-linecap="round" stroke-linejoin="round"/>
<path d="M73.3401 54.6047L69.8425 56.0967L71.8177 62.3076L75.3153 60.8156L73.3401 54.6047Z" fill="#263238"/>
<path d="M72.728 55.994L71.0554 56.7075L71.9714 59.5876L73.6439 58.8741L72.728 55.994Z" fill="white"/>
<path d="M71.4946 53.6568L70.7566 53.9716L71.3579 55.8623L72.0959 55.5475L71.4946 53.6568Z" fill="white" stroke="#263238" stroke-width="0.0679966" stroke-linecap="round" stroke-linejoin="round"/>
<path d="M67.8318 80.7985L70.9991 84.9817" stroke="#263238" stroke-width="0.135993" stroke-linecap="round" stroke-linejoin="round"/>
<mask id="mask2_320_920" style="mask-type:luminance" maskUnits="userSpaceOnUse" x="85" y="0" width="89" height="135">
<path d="M86.5466 37.797L87.3459 38.1534L98.7499 40.5692C98.7499 40.5692 100.609 41.7029 101.263 42.9108C101.917 44.1187 101.327 48.5247 101.327 48.5247L100.135 58.891L102.045 77.4751L98.7115 80.3711L98.8397 82.2078C98.9294 82.2375 98.8183 84.6582 93.8728 85.6731C93.8728 85.6731 92.847 86.2672 92.5478 86.0048C91.7912 85.3464 92.3982 85.4008 92.3982 85.4008L90.3978 86.886C90.5042 88.054 90.3964 89.2349 90.0815 90.3513C89.56 92.3315 89.2009 92.7176 89.2009 92.7176L90.1114 111.138L92.3041 114.757L120.943 134.891H173.74V0H85.9011V37.5148L86.5466 37.797Z" fill="white"/>
</mask>
<g mask="url(#mask2_320_920)">
<path d="M100.369 29.1822L97.2277 31.2812L95.4539 27.6921L98.5913 25.5981L100.369 29.1822Z" stroke="#263238" stroke-width="0.135993" stroke-linecap="round" stroke-linejoin="round"/>
<path d="M99.3082 25.0978L94.3628 28.4047L91.4177 22.0879L96.3632 18.7809L99.3082 25.0978Z" stroke="#263238" stroke-width="0.135993" stroke-linecap="round" stroke-linejoin="round"/>
<path d="M146.923 105.358C161.773 88.1596 161.773 60.2753 146.923 43.0768C132.074 25.8783 107.998 25.8783 93.1482 43.0768C78.2985 60.2753 78.2985 88.1595 93.1482 105.358C107.998 122.557 132.074 122.557 146.923 105.358Z" fill="white"/>
<path d="M120.368 22.6234C111.686 22.6204 103.199 25.5994 95.9787 31.1836C88.7587 36.7678 83.1307 44.7064 79.8066 53.9953C76.4824 63.2842 75.6113 73.5062 77.3035 83.3685C78.9957 93.2308 83.1752 102.29 89.3133 109.401C95.4514 116.513 103.272 121.356 111.787 123.319C120.302 125.281 129.128 124.275 137.15 120.428C145.171 116.581 152.027 110.065 156.851 101.705C161.674 93.3443 164.249 83.515 164.249 73.4599C164.249 59.9798 159.626 47.0516 151.397 37.5183C143.168 27.985 132.007 22.6273 120.368 22.6234ZM120.368 117.499C112.844 117.499 105.489 114.915 99.2331 110.074C92.9772 105.233 88.1012 98.3516 85.2219 90.3008C82.3426 82.2501 81.5892 73.3912 83.0571 64.8445C84.525 56.2979 88.1481 48.4473 93.4684 42.2854C98.7887 36.1236 105.567 31.9274 112.947 30.2274C120.326 28.5273 127.975 29.3998 134.926 32.7346C141.877 36.0693 147.819 41.7165 151.999 48.962C156.179 56.2076 158.41 64.726 158.41 73.4401C158.41 79.226 157.426 84.9553 155.514 90.3008C153.603 95.6464 150.8 100.503 147.268 104.595C143.735 108.686 139.542 111.931 134.926 114.146C130.311 116.36 125.364 117.499 120.368 117.499Z" fill="#263238" stroke="#263238" stroke-width="0.135993" stroke-linecap="round" stroke-linejoin="round"/>
<path d="M147.302 35.1132C142.927 30.9851 137.889 27.9041 132.478 26.0488" stroke="white" stroke-width="0.271986" stroke-linecap="round" stroke-linejoin="round"/>
<path d="M128.43 24.9114C126.875 24.5694 125.306 24.3261 123.728 24.1828" stroke="white" stroke-width="0.271986" stroke-linecap="round" stroke-linejoin="round"/>
<path d="M152.383 100.637C157.511 92.5268 160.204 82.6942 160.049 72.6435C159.895 62.5928 156.902 52.8773 151.528 44.9836" stroke="white" stroke-width="0.135993" stroke-linecap="round" stroke-linejoin="round"/>
<path d="M146.836 107.713C148.082 106.424 149.256 105.043 150.349 103.58" stroke="white" stroke-width="0.135993" stroke-linecap="round" stroke-linejoin="round"/>
<path d="M104.232 115.469C110.903 118.901 118.261 120.138 125.499 119.047C132.737 117.955 139.576 114.577 145.266 109.281" stroke="white" stroke-width="0.135993" stroke-linecap="round" stroke-linejoin="round"/>
<path d="M98.5691 111.88C99.7564 112.781 100.985 113.607 102.249 114.355" stroke="white" stroke-width="0.135993" stroke-linecap="round" stroke-linejoin="round"/>
<path d="M94.3123 108.139C95.3133 109.148 96.3576 110.098 97.4411 110.985" stroke="white" stroke-width="0.135993" stroke-linecap="round" stroke-linejoin="round"/>
<path d="M109.392 29.2715C102.647 31.521 96.5377 35.8014 91.6865 41.6764C86.8352 47.5513 83.4155 54.8109 81.7759 62.7153C80.1362 70.6196 80.3353 78.8861 82.3528 86.6723C84.3703 94.4585 88.1341 101.486 93.2605 107.039" stroke="white" stroke-width="0.135993" stroke-linecap="round" stroke-linejoin="round"/>
<path d="M148.434 40.9549C143.79 35.5842 138.072 31.6283 131.787 29.4402C125.503 27.2522 118.848 26.9001 112.418 28.4153" stroke="white" stroke-width="0.135993" stroke-linecap="round" stroke-linejoin="round"/>
<path d="M126.058 89.7425H114.636V93.3266H126.058V89.7425Z" fill="#FC7F00"/>
<path d="M123.556 73.4611C123.556 72.5972 123.294 71.7607 122.816 71.0976C122.338 70.4344 121.674 69.9867 120.94 69.8324L120.603 45.6394H120.128L119.795 69.8324C119.068 69.9837 118.409 70.4226 117.931 71.0742C117.453 71.7257 117.186 72.5494 117.174 73.4044C117.162 74.2593 117.408 75.0924 117.868 75.761C118.328 76.4297 118.974 76.8924 119.696 77.07L119.577 85.6542H121.158L121.039 77.07C121.751 76.8915 122.389 76.4362 122.847 75.7797C123.305 75.1233 123.555 74.3051 123.556 73.4611ZM120.368 75.4413C120.029 75.4413 119.699 75.3252 119.418 75.1076C119.136 74.89 118.917 74.5807 118.788 74.2189C118.659 73.8571 118.625 73.4589 118.691 73.0748C118.757 72.6907 118.919 72.3379 119.159 72.0609C119.398 71.784 119.702 71.5954 120.034 71.519C120.366 71.4426 120.709 71.4818 121.022 71.6317C121.334 71.7815 121.601 72.0354 121.789 72.361C121.977 72.6866 122.077 73.0695 122.077 73.4611C122.077 73.7212 122.033 73.9787 121.947 74.2189C121.861 74.4592 121.735 74.6775 121.577 74.8613C121.418 75.0452 121.229 75.1911 121.022 75.2906C120.814 75.3901 120.592 75.4413 120.368 75.4413Z" fill="#263238"/>
<path d="M120.369 75.4945C121.339 75.4945 122.126 74.5835 122.126 73.4598C122.126 72.3361 121.339 71.4252 120.369 71.4252C119.399 71.4252 118.612 72.3361 118.612 73.4598C118.612 74.5835 119.399 75.4945 120.369 75.4945Z" fill="#FC7F00"/>
<path d="M120.368 31.8901V39.2218" stroke="#263238" stroke-width="0.543974" stroke-linecap="round" stroke-linejoin="round"/>
<path d="M120.368 107.949V115.281" stroke="#263238" stroke-width="0.543974" stroke-linecap="round" stroke-linejoin="round"/>
<path d="M102.369 37.4813L105.532 43.8278" stroke="#263238" stroke-width="0.543974" stroke-linecap="round" stroke-linejoin="round"/>
<path d="M135.205 103.347L138.368 109.699" stroke="#263238" stroke-width="0.543974" stroke-linecap="round" stroke-linejoin="round"/>
<path d="M89.1912 52.7383L94.6709 56.4066" stroke="#263238" stroke-width="0.543974" stroke-linecap="round" stroke-linejoin="round"/>
<path d="M146.062 90.7679L151.546 94.4362" stroke="#263238" stroke-width="0.543974" stroke-linecap="round" stroke-linejoin="round"/>
<path d="M156.367 73.5886H150.037" stroke="#263238" stroke-width="0.543974" stroke-linecap="round" stroke-linejoin="round"/>
<path d="M90.6953 73.5886H84.365" stroke="#263238" stroke-width="0.543974" stroke-linecap="round" stroke-linejoin="round"/>
<path d="M156.367 73.5886H150.037" stroke="#263238" stroke-width="0.543974" stroke-linecap="round" stroke-linejoin="round"/>
<path d="M90.6953 73.5886H84.365" stroke="#263238" stroke-width="0.543974" stroke-linecap="round" stroke-linejoin="round"/>
<path d="M151.546 52.7383L146.062 56.4066" stroke="#263238" stroke-width="0.543974" stroke-linecap="round" stroke-linejoin="round"/>
<path d="M94.6709 90.7679L89.1912 94.4362" stroke="#263238" stroke-width="0.543974" stroke-linecap="round" stroke-linejoin="round"/>
<path d="M138.368 37.4813L135.205 43.8278" stroke="#263238" stroke-width="0.543974" stroke-linecap="round" stroke-linejoin="round"/>
<path d="M105.532 103.347L102.369 109.699" stroke="#263238" stroke-width="0.543974" stroke-linecap="round" stroke-linejoin="round"/>
<path d="M122.181 21.0255H118.556V24.7384H122.181V21.0255Z" stroke="#263238" stroke-width="0.135993" stroke-linecap="round" stroke-linejoin="round"/>
<path d="M123.224 11.1029H117.513V20.8108H123.224V11.1029Z" stroke="#263238" stroke-width="0.135993" stroke-linecap="round" stroke-linejoin="round"/>
<path d="M124.412 4.27222H116.145V10.8861H124.412V4.27222Z" fill="#FC7F00"/>
<path d="M124.503 4.27222H116.236V10.8861H124.503V4.27222Z" stroke="#263238" stroke-width="0.135993" stroke-linecap="round" stroke-linejoin="round"/>
<path d="M117.155 8.3863V4.42096" stroke="#263238" stroke-width="0.135993" stroke-linecap="round" stroke-linejoin="round"/>
<path d="M117.155 11.0102V9.30225" stroke="#263238" stroke-width="0.135993" stroke-linecap="round" stroke-linejoin="round"/>
<path d="M118.206 11.0101V4.42096" stroke="#263238" stroke-width="0.135993" stroke-linecap="round" stroke-linejoin="round"/>
<path d="M119.257 6.06947V4.42096" stroke="#263238" stroke-width="0.135993" stroke-linecap="round" stroke-linejoin="round"/>
<path d="M119.257 11.0101V6.86163" stroke="#263238" stroke-width="0.135993" stroke-linecap="round" stroke-linejoin="round"/>
<path d="M120.997 11.0101V4.42096" stroke="#263238" stroke-width="0.135993" stroke-linecap="round" stroke-linejoin="round"/>
</g>
<g style="mix-blend-mode:multiply" opacity="0.3">
<path d="M60.0095 56.752L63.0828 56.9995L62.9802 55.648C62.9802 55.648 60.2232 55.4005 60.0095 56.752Z" fill="#FC7F00"/>
</g>
<mask id="mask3_320_920" style="mask-type:luminance" maskUnits="userSpaceOnUse" x="48" y="56" width="10" height="32">
<path d="M53.2727 56.0392C53.2727 56.0392 48.2759 60.7273 48.2759 61.9798C48.2759 63.2322 47.9169 86.5094 48.1563 87.0589C48.3956 87.6084 57.8164 80.0193 57.8164 80.0193L56.8632 69.96" fill="white"/>
</mask>
<g mask="url(#mask3_320_920)">
<g style="mix-blend-mode:multiply" opacity="0.3">
<path d="M51.5424 84.8375L57.8172 80.0207L49.8027 83.5603C49.8027 83.5603 49.0761 64.6247 49.6232 63.1544C50.1703 61.6841 53.6198 58.9465 53.6198 58.9465C53.6198 58.9465 53.4146 57.4217 54.5259 56.8425C55.2881 56.5127 56.1275 56.5127 56.8897 56.8425L57.6804 57.189C56.77 56.595 55.2996 55.392 53.0384 52.9465H52.9871L53.5343 53.5554L53.2949 56.0306L50.8927 58.3029C50.3499 58.9366 48.2981 61.9564 48.2981 61.9564L48.1785 87.0355L51.4398 84.6048L51.5424 84.8375Z" fill="#FC7F00"/>
</g>
</g>
<path d="M53.2737 56.0404C53.2737 56.0404 48.2769 60.7285 48.2769 61.981C48.2769 63.2335 47.9179 86.5106 48.1572 87.0601C48.3966 87.6096 57.8173 80.0206 57.8173 80.0206L56.8642 69.9612" stroke="#263238" stroke-width="0.135993" stroke-linecap="round" stroke-linejoin="round"/>
<path d="M54.2253 67.482L64.3385 76.8533" stroke="#263238" stroke-width="0.135993" stroke-linecap="round" stroke-linejoin="round"/>
<mask id="mask4_320_920" style="mask-type:luminance" maskUnits="userSpaceOnUse" x="61" y="35" width="38" height="18">
<path d="M61.074 46.2859C61.074 46.2859 70.8837 35.4889 72.072 35.4889C73.2602 35.4889 92.8925 40.0334 94.3201 40.3107C95.7478 40.5879 98.1286 41.1374 98.1286 41.1374C98.1286 41.1374 93.9653 47.2017 92.5377 49.2661C91.1101 51.3304 90.4005 52.573 90.4005 52.573L74.3374 44.0334" fill="white"/>
</mask>
<g mask="url(#mask4_320_920)">
<g style="mix-blend-mode:multiply" opacity="0.3">
<path d="M98.0162 41.5235L91.9252 39.3552L72.0707 35.4889L67.0398 41.88C67.0398 41.88 71.3997 38.7265 72.6692 38.7265C73.9386 38.7265 93.0879 45.0334 94.8959 45.6225L98.0162 41.5235Z" fill="#FC7F00"/>
</g>
</g>
<path d="M61.074 46.2868C61.074 46.2868 70.8837 35.4898 72.072 35.4898C73.2602 35.4898 92.8925 40.0343 94.3201 40.3116C95.7478 40.5888 98.1286 41.1383 98.1286 41.1383C98.1286 41.1383 93.9653 47.2027 92.5377 49.267C91.1101 51.3314 90.4005 52.5739 90.4005 52.5739L74.3374 44.0343" stroke="#263238" stroke-width="0.135993" stroke-linecap="round" stroke-linejoin="round"/>
<path d="M77.0681 46.1178L81.116 58.5188" stroke="#263238" stroke-width="0.135993" stroke-linecap="round" stroke-linejoin="round"/>
<path d="M64.6942 64.7234L63.741 65.8274L59.1033 58.9363" stroke="#263238" stroke-width="0.135993" stroke-linecap="round" stroke-linejoin="round"/>
<path d="M72.5076 46.609L77.2137 45.6536L73.2128 48.9209" stroke="#263238" stroke-width="0.0679966" stroke-linecap="round" stroke-linejoin="round"/>
<path d="M56.8425 69.9594L50.8669 68.9446" stroke="#263238" stroke-width="0.0679966" stroke-linecap="round" stroke-linejoin="round"/>
<path d="M53.5121 53.5592C53.0826 54.7903 53.0403 56.157 53.3924 57.4206C53.9866 59.4849 56.0084 63.0691 56.0084 63.0691L58.6243 58.7968" stroke="#263238" stroke-width="0.135993" stroke-linecap="round" stroke-linejoin="round"/>
<path d="M59.4586 57.1444C59.4586 57.1444 60.7709 55.7682 61.9592 55.7682H63.9809C63.9809 55.7682 63.6262 50.392 61.9592 47.4959C60.2922 44.5999 58.031 46.1197 58.031 46.1197" stroke="#263238" stroke-width="0.135993" stroke-linecap="round" stroke-linejoin="round"/>
<path d="M57.3171 80.8475L71.5978 73.1297L72.7861 68.3079L77.6632 67.0802C77.6632 67.0802 78.6163 65.9762 78.4967 67.0802C78.377 68.1841 77.069 68.595 76.5946 69.699C76.1201 70.8029 76.1158 73.0059 75.5217 73.9713C74.9276 74.9366 72.7861 76.0406 72.7861 76.0406C72.7861 76.0406 56.723 91.6098 55.5347 92.4366C54.3464 93.2633 51.9656 85.4069 51.9656 85.4069" fill="white"/>
<mask id="mask5_320_920" style="mask-type:luminance" maskUnits="userSpaceOnUse" x="51" y="66" width="28" height="27">
<path d="M57.3181 80.8497L71.5988 73.1319L72.7871 68.3102L77.6641 67.0824C77.6641 67.0824 78.6173 65.9785 78.4976 67.0824C78.378 68.1864 77.07 68.5973 76.5955 69.7012C76.1211 70.8052 76.1168 73.0082 75.5227 73.9735C74.9285 74.9389 72.7871 76.0428 72.7871 76.0428C72.7871 76.0428 56.7239 91.6121 55.5357 92.4388C54.3474 93.2656 51.9666 85.4091 51.9666 85.4091" fill="white"/>
</mask>
<g mask="url(#mask5_320_920)">
<g style="mix-blend-mode:multiply" opacity="0.3">
<path d="M51.5427 84.84C52.0941 85.8648 54.3467 90.1073 54.5049 91.7707C54.6887 93.6667 56.142 91.7707 56.142 91.7707L69.2216 79.1519C69.2216 79.1519 56.3215 88.6123 55.2529 88.1915C54.1843 87.7707 53.9706 84.6173 53.9706 84.6173L57.8175 80.0232L51.5427 84.84Z" fill="#FC7F00"/>
</g>
</g>
<path d="M57.3171 80.8475L71.5978 73.1297L72.7861 68.3079L77.6632 67.0802C77.6632 67.0802 78.6163 65.9762 78.4967 67.0802C78.377 68.1841 77.069 68.595 76.5946 69.699C76.1201 70.8029 76.1158 73.0059 75.5217 73.9713C74.9276 74.9366 72.7861 76.0406 72.7861 76.0406C72.7861 76.0406 56.723 91.6098 55.5347 92.4366C54.3464 93.2633 51.9656 85.4069 51.9656 85.4069" stroke="#263238" stroke-width="0.135993" stroke-linecap="round" stroke-linejoin="round"/>
<path d="M77.6626 67.0786C77.6626 67.0786 75.3331 68.6875 75.5682 69.232" stroke="#263238" stroke-width="0.0679966" stroke-linecap="round" stroke-linejoin="round"/>
<path d="M75.8032 67.5856L74.0378 68.6747" stroke="#263238" stroke-width="0.0679966" stroke-linecap="round" stroke-linejoin="round"/>
</svg>
